{"title":"Self Storage 2013 HDRiP XViD UNiQUE","uid":8890389,"size":1510332449,"categoryP":"video","categoryS":"movies","magnet":"?xt=urn:btih:69ca64a24b7c09a566512efd23e9d3878c9e439d&amp;dn=Self+Storage+2013+HDRiP+XViD+UNiQUE&amp;tr=udp%3A%2F%2Ftracker.openbittorrent.com%3A80&amp;tr=udp%3A%2F%2Fopen.demonii.com%3A1337&amp;tr=udp%3A%2F%2Ftracker.coppersurfer.tk%3A6969&amp;tr=udp%3A%2F%2Fexodus.desync.com%3A6969","seeders":0,"leechers":1,"uploader":"TeX","files":3,"time":1378568672,"description":" &lt;a href=&quot;http://namecreative.co.uk/blog/wp-content/uploads/2013/05/self-storage-film-poster-1sheet-key-art-name-creative.jpg&quot; rel=&quot;nofollow&quot; target=&quot;_NEW&quot;&gt;http://namecreative.co.uk/blog/wp-content/uploads/2013/05/self-storage-film-poster-1sheet-key-art-name-creative.jpg&lt;/a&gt;\n\nFormat : AVI\nFormat/Info : Audio Video Interleave\nFile size : 1.40 GiB\nDuration : 1h 32mn\nOverall bit rate : 2 155 Kbps\nWriting application : VirtualDubMod 1.5.10.2 (build 2540/release)\nWriting library : VirtualDubMod build 2540/release\n\nVideo\nID : 0\nFormat : MPEG-4 Visual\nFormat profile : Advanced Simple@L5\nFormat settings, BVOP : 2\nFormat settings, QPel : No\nFormat settings, GMC : No warppoints\nFormat settings, Matrix : Default (H.263)\nMuxing mode : Packed bitstream\nCodec ID : XVID\nCodec ID/Hint : XviD\nDuration : 1h 32mn\nBit rate : 1 762 Kbps\nWidth : 720 pixels\nHeight : 400 pixels\nDisplay aspect ratio : 16:9\nFrame rate : 23.976 fps\nColor space : YUV\nChroma subsampling : 4:2:0\nBit depth : 8 bits\nScan type : Progressive\nCompression mode : Lossy\nBits/(Pixel*Frame) : 0.255\nStream size : 1.14 GiB (82%)\nWriting library : XviD 64\n\nAudio\nID : 1\nFormat : AC-3\nFormat/Info : Audio Coding 3\nMode extension : CM (complete main)\nFormat settings, Endianness : Big\nCodec ID : 2000\nDuration : 1h 32mn\nBit rate mode : Constant\nBit rate : 384 Kbps\nChannel(s) : 6 channels\nChannel positions : Front: L C R, Side: L R, LFE\nSampling rate : 48.0 KHz\nBit depth : 16 bits\nCompression mode : Lossy\nStream size : 255 MiB (18%)\nAlignment : Split accross interleaves\nInterleave, duration : 42 ms (1.00 video frame)\nInterleave, preload duration : 500 ms\n\n\n\n","torrent":{"xt":"urn:btih:69ca64a24b7c09a566512efd23e9d3878c9e439d","amp;dn":"Self+Storage+2013+HDRiP+XViD+UNiQUE","amp;tr":["udp%3A%2F%2Ftracker.openbittorrent.com%3A80","udp%3A%2F%2Fopen.demonii.com%3A1337","udp%3A%2F%2Ftracker.coppersurfer.tk%3A6969","udp%3A%2F%2Fexodus.desync.com%3A6969"],"infoHash":"69ca64a24b7c09a566512efd23e9d3878c9e439d","infoHashBuffer":{"type":"Buffer","data":[105,202,100,162,75,124,9,165,102,81,46,253,35,233,211,135,140,158,67,157]},"announce":[],"urlList":[]}}